<svg xmlns="http://www.w3.org/2000/svg" viewBox="0 0 350.11 350.11"><defs><style>.cls-1{fill:#fff;}</style></defs><g id="Layer_2" data-name="Layer 2"><g id="Layer_1-2" data-name="Layer 1"><path d="M175.05,350.11A175.06,175.06,0,1,0,0,175.05,175.06,175.06,0,0,0,175.05,350.11"/><path class="cls-1" d="M145.81,129.81c-2.83,0-5.36.09-6.61.21-2.48.23-3.35,2.59-3.19,4.91,2.33,33.68-5.42,72.78-13.85,72.71-6.27-.06-7.86-18.38-7.72-34.66.08-9.63.71-18.89,1-27.08.11-3-1-3.62-3.18-3.9a23.77,23.77,0,0,0-9,.25c-2.53.54-3.14,2.6-5.85,8.89C83.92,182.45,71,207.59,71,207.59c-3.15-25.34,1.39-49.85,5.22-67.73.53-2.47-.63-3.93-2.66-3.92-3.81,0-9.67.11-12.33,1.81-2.49,1.61-3.43,3.33-4.18,6.91-4.26,20.49-7.15,46.2-3.2,66.14.85,4.31,1.83,5.33,3.64,6.47s9.6,2.22,12.62,2.25c3.43,0,6.58-.86,9.24-5.33,5.62-9.44,10.14-18.88,18.67-37.07.66,23.8,3.85,42.51,20.57,42.65,22.16.2,36.94-55,37.17-81.67.06-7-3.42-8.23-9.9-8.29"/><path class="cls-1" d="M178.39,211.06c-4.92,0-8.17-4.31-8.09-12.72.14-16.12,6-33.42,16.33-33.33a8.57,8.57,0,0,1,3.1.54c-.17.62-.3,1.14-.36,1.43-1.62,9.13.22,15,4.56,18.24-2.36,14.14-8.72,25.9-15.54,25.84m118.52-50.58s-7.48-.46-16.1-.92c0,0,1.83-9.55,2.71-13.44a3.62,3.62,0,0,0-3-4.42,41.79,41.79,0,0,0-9.75-.5,3.71,3.71,0,0,0-3.41,2.67c-.9,4-1.85,8.8-3,14.95-3.2-.1-6.31-.16-8.46-.14a3.19,3.19,0,0,0-3.4,2.7,36,36,0,0,0-.94,6.45c-.12,1.85,1.89,2.76,4,2.7l6.56-.26c-.77,3.5-2.33,12.89-3,18.73-3.72,12.12-11.3,21-17.76,21-4,0-6.3-2.4-6.25-9.53.09-9.87,2.47-22.33,5.88-34.81,4.76-11.18,7.55-23.64,7.6-29.29,0-2.13-.61-4.51-3.15-5a25.67,25.67,0,0,0-12,.1c-2.75.83-3.33,3.7-3.67,5.23-1.65,7.37-4.35,20.42-6.26,31.87-4.06,4.84-8.72,8.23-13.73,9-.65-15.19-9.42-21.78-21.59-21.89-21.37-.19-35.15,18.73-35.34,40.1-.15,17.31,9.23,24.61,23,24.74,16.23.14,28.42-11.28,33.11-32.37a25.34,25.34,0,0,0,12.07-6.16s-2.7,13.07-2.76,20.75c-.11,11.65,4.84,18.19,16.58,18.29,9.66.09,18.15-6.65,23.49-14.89,1.33,10.83,6.94,15.16,16.11,15.24,8.43.08,16.6-5.2,22.42-14.82,1.17-1.92,2-3.6,1.3-4.45-1.65-1.93-4.82-3-5.71-1.37-3.85,6.9-7.94,9.66-12.37,9.62-3.51,0-6.33-2.14-6.28-8.22.08-8.75,5.21-32.38,5.21-32.38,4.33-.12,9.15-.22,13.73-.28,4-.06,6.87-1.26,7.6-5.07.43-2.27-.89-3.73-3.47-3.87"/></g></g></svg>